<?xml version="1.0" encoding="utf-8"?><svg viewBox="0 0 256 352" xmlns="http://www.w3.org/2000/svg"><style>text{dominant-baseline:middle;}.square{fill:#FFFFFF;stroke:#000000;}.answer{ text-anchor:middle; font-family:Arial, Helvetica, sans-serif; font-weight:lighter;font-size:14px;}.number{font-size:8px;}</style><g id="grid"><rect width="32" height="32" x="32" y="0" class="square"></rect><text x="37" y="8" class="number">1</text><rect width="32" height="32" x="32" y="32" class="square"></rect><rect width="32" height="32" x="32" y="64" class="square"></rect><rect width="32" height="32" x="32" y="96" class="square"></rect><rect width="32" height="32" x="32" y="128" class="square"></rect><rect width="32" height="32" x="32" y="160" class="square"></rect><rect width="32" height="32" x="32" y="192" class="square"></rect><rect width="32" height="32" x="32" y="224" class="square"></rect><rect width="32" height="32" x="32" y="256" class="square"></rect><rect width="32" height="32" x="32" y="0" class="square"></rect><text x="37" y="8" class="number">1</text><rect width="32" height="32" x="64" y="0" class="square"></rect><rect width="32" height="32" x="96" y="0" class="square"></rect><rect width="32" height="32" x="160" y="0" class="square"></rect><text x="165" y="8" class="number">2</text><rect width="32" height="32" x="160" y="32" class="square"></rect><rect width="32" height="32" x="160" y="64" class="square"></rect><rect width="32" height="32" x="160" y="96" class="square"></rect><rect width="32" height="32" x="160" y="128" class="square"></rect><rect width="32" height="32" x="160" y="160" class="square"></rect><rect width="32" height="32" x="160" y="192" class="square"></rect><rect width="32" height="32" x="224" y="32" class="square"></rect><text x="229" y="40" class="number">3</text><rect width="32" height="32" x="224" y="64" class="square"></rect><rect width="32" height="32" x="224" y="96" class="square"></rect><rect width="32" height="32" x="224" y="128" class="square"></rect><rect width="32" height="32" x="224" y="160" class="square"></rect><rect width="32" height="32" x="224" y="192" class="square"></rect><rect width="32" height="32" x="224" y="224" class="square"></rect><rect width="32" height="32" x="224" y="256" class="square"></rect><rect width="32" height="32" x="96" y="64" class="square"></rect><text x="101" y="72" class="number">4</text><rect width="32" height="32" x="128" y="64" class="square"></rect><rect width="32" height="32" x="160" y="64" class="square"></rect><rect width="32" height="32" x="192" y="64" class="square"></rect><rect width="32" height="32" x="224" y="64" class="square"></rect><rect width="32" height="32" x="256" y="64" class="square"></rect><rect width="32" height="32" x="288" y="64" class="square"></rect><rect width="32" height="32" x="0" y="128" class="square"></rect><text x="5" y="136" class="number">5</text><rect width="32" height="32" x="32" y="128" class="square"></rect><rect width="32" height="32" x="64" y="128" class="square"></rect><rect width="32" height="32" x="96" y="128" class="square"></rect><rect width="32" height="32" x="96" y="224" class="square"></rect><text x="101" y="232" class="number">6</text><rect width="32" height="32" x="96" y="256" class="square"></rect><rect width="32" height="32" x="96" y="288" class="square"></rect><rect width="32" height="32" x="96" y="320" class="square"></rect><rect width="32" height="32" x="0" y="256" class="square"></rect><text x="5" y="264" class="number">7</text><rect width="32" height="32" x="32" y="256" class="square"></rect><rect width="32" height="32" x="64" y="256" class="square"></rect><rect width="32" height="32" x="96" y="256" class="square"></rect><rect width="32" height="32" x="128" y="256" class="square"></rect><rect width="32" height="32" x="160" y="256" class="square"></rect><rect width="32" height="32" x="192" y="256" class="square"></rect><rect width="32" height="32" x="224" y="256" class="square"></rect></g><g id="answers"><text x="48" y="18" class="answer">I</text><text x="48" y="50" class="answer">K</text><text x="48" y="82" class="answer">N</text><text x="48" y="114" class="answer">E</text><text x="48" y="146" class="answer">A</text><text x="48" y="178" class="answer">D</text><text x="48" y="210" class="answer">Y</text><text x="48" y="242" class="answer">O</text><text x="48" y="274" class="answer">U</text><text x="48" y="18" class="answer">I</text><text x="80" y="18" class="answer">D</text><text x="112" y="18" class="answer">O</text><text x="176" y="18" class="answer">W</text><text x="176" y="50" class="answer">E</text><text x="176" y="82" class="answer">D</text><text x="176" y="114" class="answer">D</text><text x="176" y="146" class="answer">I</text><text x="176" y="178" class="answer">N</text><text x="176" y="210" class="answer">G</text><text x="240" y="50" class="answer">T</text><text x="240" y="82" class="answer">O</text><text x="240" y="114" class="answer">G</text><text x="240" y="146" class="answer">E</text><text x="240" y="178" class="answer">T</text><text x="240" y="210" class="answer">H</text><text x="240" y="242" class="answer">E</text><text x="240" y="274" class="answer">R</text><text x="112" y="82" class="answer">Y</text><text x="144" y="82" class="answer">O</text><text x="176" y="82" class="answer">D</text><text x="208" y="82" class="answer">A</text><text x="240" y="82" class="answer">O</text><text x="272" y="82" class="answer">N</text><text x="304" y="82" class="answer">E</text><text x="16" y="146" class="answer">C</text><text x="48" y="146" class="answer">A</text><text x="80" y="146" class="answer">M</text><text x="112" y="146" class="answer">P</text><text x="112" y="242" class="answer">G</text><text x="112" y="274" class="answer">R</text><text x="112" y="306" class="answer">O</text><text x="112" y="338" class="answer">W</text><text x="16" y="274" class="answer">F</text><text x="48" y="274" class="answer">U</text><text x="80" y="274" class="answer">R</text><text x="112" y="274" class="answer">R</text><text x="144" y="274" class="answer">E</text><text x="176" y="274" class="answer">V</text><text x="208" y="274" class="answer">E</text><text x="240" y="274" class="answer">R</text></g></svg>
