<?xml version="1.0" encoding="utf-8"?><svg viewBox="0 0 480 480" xmlns="http://www.w3.org/2000/svg"><style>text{dominant-baseline:middle;}.square{fill:#FFFFFF;stroke:#000000;}.answer{ text-anchor:middle; font-family:Arial, Helvetica, sans-serif; font-weight:lighter;font-size:14px;}.number{font-size:8px;}</style><g id="grid"><rect width="32" height="32" x="64" y="0" class="square"></rect><text x="69" y="8" class="number">1</text><rect width="32" height="32" x="64" y="32" class="square"></rect><rect width="32" height="32" x="64" y="64" class="square"></rect><rect width="32" height="32" x="64" y="96" class="square"></rect><rect width="32" height="32" x="64" y="128" class="square"></rect><rect width="32" height="32" x="64" y="160" class="square"></rect><rect width="32" height="32" x="64" y="192" class="square"></rect><rect width="32" height="32" x="64" y="224" class="square"></rect><rect width="32" height="32" x="64" y="256" class="square"></rect><rect width="32" height="32" x="64" y="288" class="square"></rect><rect width="32" height="32" x="64" y="320" class="square"></rect><rect width="32" height="32" x="64" y="352" class="square"></rect><rect width="32" height="32" x="64" y="384" class="square"></rect><rect width="32" height="32" x="64" y="416" class="square"></rect><rect width="32" height="32" x="64" y="0" class="square"></rect><text x="69" y="8" class="number">1</text><rect width="32" height="32" x="96" y="0" class="square"></rect><rect width="32" height="32" x="128" y="0" class="square"></rect><rect width="32" height="32" x="160" y="0" class="square"></rect><rect width="32" height="32" x="192" y="0" class="square"></rect><rect width="32" height="32" x="224" y="0" class="square"></rect><rect width="32" height="32" x="256" y="0" class="square"></rect><rect width="32" height="32" x="288" y="0" class="square"></rect><rect width="32" height="32" x="320" y="0" class="square"></rect><rect width="32" height="32" x="64" y="64" class="square"></rect><text x="69" y="72" class="number">2</text><rect width="32" height="32" x="96" y="64" class="square"></rect><rect width="32" height="32" x="128" y="64" class="square"></rect><rect width="32" height="32" x="160" y="64" class="square"></rect><rect width="32" height="32" x="192" y="64" class="square"></rect><rect width="32" height="32" x="224" y="64" class="square"></rect><rect width="32" height="32" x="256" y="64" class="square"></rect><rect width="32" height="32" x="288" y="64" class="square"></rect><rect width="32" height="32" x="320" y="64" class="square"></rect><rect width="32" height="32" x="32" y="128" class="square"></rect><text x="37" y="136" class="number">3</text><rect width="32" height="32" x="64" y="128" class="square"></rect><rect width="32" height="32" x="96" y="128" class="square"></rect><rect width="32" height="32" x="128" y="128" class="square"></rect><rect width="32" height="32" x="160" y="128" class="square"></rect><rect width="32" height="32" x="192" y="128" class="square"></rect><rect width="32" height="32" x="224" y="128" class="square"></rect><rect width="32" height="32" x="256" y="128" class="square"></rect><rect width="32" height="32" x="288" y="128" class="square"></rect><rect width="32" height="32" x="320" y="128" class="square"></rect><rect width="32" height="32" x="352" y="128" class="square"></rect><rect width="32" height="32" x="384" y="128" class="square"></rect><rect width="32" height="32" x="352" y="128" class="square"></rect><text x="357" y="136" class="number">4</text><rect width="32" height="32" x="352" y="160" class="square"></rect><rect width="32" height="32" x="352" y="192" class="square"></rect><rect width="32" height="32" x="352" y="224" class="square"></rect><rect width="32" height="32" x="352" y="256" class="square"></rect><rect width="32" height="32" x="352" y="288" class="square"></rect><rect width="32" height="32" x="352" y="320" class="square"></rect><rect width="32" height="32" x="352" y="352" class="square"></rect><rect width="32" height="32" x="352" y="384" class="square"></rect><rect width="32" height="32" x="352" y="416" class="square"></rect><rect width="32" height="32" x="352" y="448" class="square"></rect><rect width="32" height="32" x="416" y="160" class="square"></rect><text x="421" y="168" class="number">5</text><rect width="32" height="32" x="416" y="192" class="square"></rect><rect width="32" height="32" x="416" y="224" class="square"></rect><rect width="32" height="32" x="416" y="256" class="square"></rect><rect width="32" height="32" x="416" y="288" class="square"></rect><rect width="32" height="32" x="416" y="320" class="square"></rect><rect width="32" height="32" x="0" y="192" class="square"></rect><text x="5" y="200" class="number">6</text><rect width="32" height="32" x="32" y="192" class="square"></rect><rect width="32" height="32" x="64" y="192" class="square"></rect><rect width="32" height="32" x="96" y="192" class="square"></rect><rect width="32" height="32" x="128" y="192" class="square"></rect><rect width="32" height="32" x="224" y="192" class="square"></rect><text x="229" y="200" class="number">7</text><rect width="32" height="32" x="256" y="192" class="square"></rect><rect width="32" height="32" x="288" y="192" class="square"></rect><rect width="32" height="32" x="320" y="192" class="square"></rect><rect width="32" height="32" x="352" y="192" class="square"></rect><rect width="32" height="32" x="384" y="192" class="square"></rect><rect width="32" height="32" x="416" y="192" class="square"></rect><rect width="32" height="32" x="448" y="192" class="square"></rect><rect width="32" height="32" x="0" y="256" class="square"></rect><text x="5" y="264" class="number">8</text><rect width="32" height="32" x="32" y="256" class="square"></rect><rect width="32" height="32" x="64" y="256" class="square"></rect><rect width="32" height="32" x="96" y="256" class="square"></rect><rect width="32" height="32" x="128" y="256" class="square"></rect><rect width="32" height="32" x="160" y="256" class="square"></rect><rect width="32" height="32" x="192" y="256" class="square"></rect><rect width="32" height="32" x="224" y="256" class="square"></rect><rect width="32" height="32" x="0" y="320" class="square"></rect><text x="5" y="328" class="number">9</text><rect width="32" height="32" x="32" y="320" class="square"></rect><rect width="32" height="32" x="64" y="320" class="square"></rect><rect width="32" height="32" x="96" y="320" class="square"></rect><rect width="32" height="32" x="128" y="320" class="square"></rect><rect width="32" height="32" x="160" y="320" class="square"></rect><rect width="32" height="32" x="160" y="384" class="square"></rect><text x="165" y="392" class="number">10</text><rect width="32" height="32" x="192" y="384" class="square"></rect><rect width="32" height="32" x="224" y="384" class="square"></rect><rect width="32" height="32" x="256" y="384" class="square"></rect><rect width="32" height="32" x="288" y="384" class="square"></rect><rect width="32" height="32" x="320" y="384" class="square"></rect><rect width="32" height="32" x="352" y="384" class="square"></rect><rect width="32" height="32" x="384" y="384" class="square"></rect><rect width="32" height="32" x="416" y="384" class="square"></rect><rect width="32" height="32" x="128" y="448" class="square"></rect><text x="133" y="456" class="number">11</text><rect width="32" height="32" x="160" y="448" class="square"></rect><rect width="32" height="32" x="192" y="448" class="square"></rect><rect width="32" height="32" x="224" y="448" class="square"></rect><rect width="32" height="32" x="256" y="448" class="square"></rect><rect width="32" height="32" x="288" y="448" class="square"></rect><rect width="32" height="32" x="320" y="448" class="square"></rect><rect width="32" height="32" x="352" y="448" class="square"></rect><rect width="32" height="32" x="384" y="448" class="square"></rect><rect width="32" height="32" x="416" y="448" class="square"></rect><rect width="32" height="32" x="448" y="448" class="square"></rect></g><g id="answers"><text x="80" y="18" class="answer">W</text><text x="80" y="50" class="answer">A</text><text x="80" y="82" class="answer">K</text><text x="80" y="114" class="answer">A</text><text x="80" y="146" class="answer">N</text><text x="80" y="178" class="answer">D</text><text x="80" y="210" class="answer">A</text><text x="80" y="242" class="answer">F</text><text x="80" y="274" class="answer">O</text><text x="80" y="306" class="answer">R</text><text x="80" y="338" class="answer">E</text><text x="80" y="370" class="answer">V</text><text x="80" y="402" class="answer">E</text><text x="80" y="434" class="answer">R</text><text x="80" y="18" class="answer">W</text><text x="112" y="18" class="answer">I</text><text x="144" y="18" class="answer">N</text><text x="176" y="18" class="answer">D</text><text x="208" y="18" class="answer">Y</text><text x="240" y="18" class="answer">L</text><text x="272" y="18" class="answer">A</text><text x="304" y="18" class="answer">K</text><text x="336" y="18" class="answer">E</text><text x="80" y="82" class="answer">K</text><text x="112" y="82" class="answer">E</text><text x="144" y="82" class="answer">R</text><text x="176" y="82" class="answer">N</text><text x="208" y="82" class="answer">C</text><text x="240" y="82" class="answer">L</text><text x="272" y="82" class="answer">I</text><text x="304" y="82" class="answer">F</text><text x="336" y="82" class="answer">F</text><text x="48" y="146" class="answer">S</text><text x="80" y="146" class="answer">N</text><text x="112" y="146" class="answer">I</text><text x="144" y="146" class="answer">C</text><text x="176" y="146" class="answer">K</text><text x="208" y="146" class="answer">L</text><text x="240" y="146" class="answer">E</text><text x="272" y="146" class="answer">F</text><text x="304" y="146" class="answer">R</text><text x="336" y="146" class="answer">I</text><text x="368" y="146" class="answer">T</text><text x="400" y="146" class="answer">Z</text><text x="368" y="146" class="answer">T</text><text x="368" y="178" class="answer">U</text><text x="368" y="210" class="answer">M</text><text x="368" y="242" class="answer">E</text><text x="368" y="274" class="answer">M</text><text x="368" y="306" class="answer">A</text><text x="368" y="338" class="answer">N</text><text x="368" y="370" class="answer">Q</text><text x="368" y="402" class="answer">U</text><text x="368" y="434" class="answer">E</text><text x="368" y="466" class="answer">S</text><text x="432" y="178" class="answer">O</text><text x="432" y="210" class="answer">R</text><text x="432" y="242" class="answer">C</text><text x="432" y="274" class="answer">H</text><text x="432" y="306" class="answer">I</text><text x="432" y="338" class="answer">D</text><text x="16" y="210" class="answer">P</text><text x="48" y="210" class="answer">I</text><text x="80" y="210" class="answer">A</text><text x="112" y="210" class="answer">N</text><text x="144" y="210" class="answer">O</text><text x="240" y="210" class="answer">P</text><text x="272" y="210" class="answer">E</text><text x="304" y="210" class="answer">T</text><text x="336" y="210" class="answer">S</text><text x="368" y="210" class="answer">M</text><text x="400" y="210" class="answer">A</text><text x="432" y="210" class="answer">R</text><text x="464" y="210" class="answer">T</text><text x="16" y="274" class="answer">G</text><text x="48" y="274" class="answer">O</text><text x="80" y="274" class="answer">O</text><text x="112" y="274" class="answer">D</text><text x="144" y="274" class="answer">L</text><text x="176" y="274" class="answer">I</text><text x="208" y="274" class="answer">F</text><text x="240" y="274" class="answer">E</text><text x="16" y="338" class="answer">C</text><text x="48" y="338" class="answer">H</text><text x="80" y="338" class="answer">E</text><text x="112" y="338" class="answer">R</text><text x="144" y="338" class="answer">R</text><text x="176" y="338" class="answer">Y</text><text x="176" y="402" class="answer">A</text><text x="208" y="402" class="answer">L</text><text x="240" y="402" class="answer">G</text><text x="272" y="402" class="answer">O</text><text x="304" y="402" class="answer">N</text><text x="336" y="402" class="answer">Q</text><text x="368" y="402" class="answer">U</text><text x="400" y="402" class="answer">I</text><text x="432" y="402" class="answer">N</text><text x="144" y="466" class="answer">M</text><text x="176" y="466" class="answer">O</text><text x="208" y="466" class="answer">N</text><text x="240" y="466" class="answer">S</text><text x="272" y="466" class="answer">T</text><text x="304" y="466" class="answer">E</text><text x="336" y="466" class="answer">R</text><text x="368" y="466" class="answer">S</text><text x="400" y="466" class="answer">I</text><text x="432" y="466" class="answer">N</text><text x="464" y="466" class="answer">C</text></g></svg>
