<?xml version="1.0" encoding="utf-8"?><svg viewBox="0 0 480 480" xmlns="http://www.w3.org/2000/svg"><style>text{dominant-baseline:middle;}.square{fill:#FFFFFF;stroke:#000000;}.answer{ text-anchor:middle; font-family:Arial, Helvetica, sans-serif; font-weight:lighter;font-size:14px;}.number{font-size:8px;}</style><g id="grid"><rect width="32" height="32" x="64" y="0" class="square"></rect><text x="69" y="6" class="number">0</text><rect width="32" height="32" x="64" y="32" class="square"></rect><rect width="32" height="32" x="64" y="64" class="square"></rect><rect width="32" height="32" x="64" y="96" class="square"></rect><rect width="32" height="32" x="64" y="128" class="square"></rect><rect width="32" height="32" x="64" y="160" class="square"></rect><rect width="32" height="32" x="64" y="192" class="square"></rect><rect width="32" height="32" x="64" y="224" class="square"></rect><rect width="32" height="32" x="64" y="256" class="square"></rect><rect width="32" height="32" x="64" y="288" class="square"></rect><rect width="32" height="32" x="64" y="320" class="square"></rect><rect width="32" height="32" x="64" y="352" class="square"></rect><rect width="32" height="32" x="64" y="384" class="square"></rect><rect width="32" height="32" x="64" y="416" class="square"></rect><rect width="32" height="32" x="32" y="128" class="square"></rect><text x="37" y="134" class="number">0</text><rect width="32" height="32" x="64" y="128" class="square"></rect><rect width="32" height="32" x="96" y="128" class="square"></rect><rect width="32" height="32" x="128" y="128" class="square"></rect><rect width="32" height="32" x="160" y="128" class="square"></rect><rect width="32" height="32" x="192" y="128" class="square"></rect><rect width="32" height="32" x="224" y="128" class="square"></rect><rect width="32" height="32" x="256" y="128" class="square"></rect><rect width="32" height="32" x="288" y="128" class="square"></rect><rect width="32" height="32" x="320" y="128" class="square"></rect><rect width="32" height="32" x="352" y="128" class="square"></rect><rect width="32" height="32" x="384" y="128" class="square"></rect><rect width="32" height="32" x="352" y="128" class="square"></rect><text x="357" y="134" class="number">0</text><rect width="32" height="32" x="352" y="160" class="square"></rect><rect width="32" height="32" x="352" y="192" class="square"></rect><rect width="32" height="32" x="352" y="224" class="square"></rect><rect width="32" height="32" x="352" y="256" class="square"></rect><rect width="32" height="32" x="352" y="288" class="square"></rect><rect width="32" height="32" x="352" y="320" class="square"></rect><rect width="32" height="32" x="352" y="352" class="square"></rect><rect width="32" height="32" x="352" y="384" class="square"></rect><rect width="32" height="32" x="352" y="416" class="square"></rect><rect width="32" height="32" x="352" y="448" class="square"></rect><rect width="32" height="32" x="128" y="448" class="square"></rect><text x="133" y="454" class="number">0</text><rect width="32" height="32" x="160" y="448" class="square"></rect><rect width="32" height="32" x="192" y="448" class="square"></rect><rect width="32" height="32" x="224" y="448" class="square"></rect><rect width="32" height="32" x="256" y="448" class="square"></rect><rect width="32" height="32" x="288" y="448" class="square"></rect><rect width="32" height="32" x="320" y="448" class="square"></rect><rect width="32" height="32" x="352" y="448" class="square"></rect><rect width="32" height="32" x="384" y="448" class="square"></rect><rect width="32" height="32" x="416" y="448" class="square"></rect><rect width="32" height="32" x="448" y="448" class="square"></rect><rect width="32" height="32" x="64" y="64" class="square"></rect><text x="69" y="70" class="number">0</text><rect width="32" height="32" x="96" y="64" class="square"></rect><rect width="32" height="32" x="128" y="64" class="square"></rect><rect width="32" height="32" x="160" y="64" class="square"></rect><rect width="32" height="32" x="192" y="64" class="square"></rect><rect width="32" height="32" x="224" y="64" class="square"></rect><rect width="32" height="32" x="256" y="64" class="square"></rect><rect width="32" height="32" x="288" y="64" class="square"></rect><rect width="32" height="32" x="320" y="64" class="square"></rect><rect width="32" height="32" x="64" y="0" class="square"></rect><text x="69" y="6" class="number">0</text><rect width="32" height="32" x="96" y="0" class="square"></rect><rect width="32" height="32" x="128" y="0" class="square"></rect><rect width="32" height="32" x="160" y="0" class="square"></rect><rect width="32" height="32" x="192" y="0" class="square"></rect><rect width="32" height="32" x="224" y="0" class="square"></rect><rect width="32" height="32" x="256" y="0" class="square"></rect><rect width="32" height="32" x="288" y="0" class="square"></rect><rect width="32" height="32" x="320" y="0" class="square"></rect><rect width="32" height="32" x="160" y="384" class="square"></rect><text x="165" y="390" class="number">0</text><rect width="32" height="32" x="192" y="384" class="square"></rect><rect width="32" height="32" x="224" y="384" class="square"></rect><rect width="32" height="32" x="256" y="384" class="square"></rect><rect width="32" height="32" x="288" y="384" class="square"></rect><rect width="32" height="32" x="320" y="384" class="square"></rect><rect width="32" height="32" x="352" y="384" class="square"></rect><rect width="32" height="32" x="384" y="384" class="square"></rect><rect width="32" height="32" x="416" y="384" class="square"></rect><rect width="32" height="32" x="0" y="256" class="square"></rect><text x="5" y="262" class="number">0</text><rect width="32" height="32" x="32" y="256" class="square"></rect><rect width="32" height="32" x="64" y="256" class="square"></rect><rect width="32" height="32" x="96" y="256" class="square"></rect><rect width="32" height="32" x="128" y="256" class="square"></rect><rect width="32" height="32" x="160" y="256" class="square"></rect><rect width="32" height="32" x="192" y="256" class="square"></rect><rect width="32" height="32" x="224" y="256" class="square"></rect><rect width="32" height="32" x="224" y="192" class="square"></rect><text x="229" y="198" class="number">0</text><rect width="32" height="32" x="256" y="192" class="square"></rect><rect width="32" height="32" x="288" y="192" class="square"></rect><rect width="32" height="32" x="320" y="192" class="square"></rect><rect width="32" height="32" x="352" y="192" class="square"></rect><rect width="32" height="32" x="384" y="192" class="square"></rect><rect width="32" height="32" x="416" y="192" class="square"></rect><rect width="32" height="32" x="448" y="192" class="square"></rect><rect width="32" height="32" x="0" y="320" class="square"></rect><text x="5" y="326" class="number">0</text><rect width="32" height="32" x="32" y="320" class="square"></rect><rect width="32" height="32" x="64" y="320" class="square"></rect><rect width="32" height="32" x="96" y="320" class="square"></rect><rect width="32" height="32" x="128" y="320" class="square"></rect><rect width="32" height="32" x="160" y="320" class="square"></rect><rect width="32" height="32" x="416" y="160" class="square"></rect><text x="421" y="166" class="number">0</text><rect width="32" height="32" x="416" y="192" class="square"></rect><rect width="32" height="32" x="416" y="224" class="square"></rect><rect width="32" height="32" x="416" y="256" class="square"></rect><rect width="32" height="32" x="416" y="288" class="square"></rect><rect width="32" height="32" x="416" y="320" class="square"></rect><rect width="32" height="32" x="0" y="192" class="square"></rect><text x="5" y="198" class="number">0</text><rect width="32" height="32" x="32" y="192" class="square"></rect><rect width="32" height="32" x="64" y="192" class="square"></rect><rect width="32" height="32" x="96" y="192" class="square"></rect><rect width="32" height="32" x="128" y="192" class="square"></rect></g><g id="answers"><text x="80" y="17" class="answer">W</text><text x="80" y="49" class="answer">A</text><text x="80" y="81" class="answer">K</text><text x="80" y="113" class="answer">A</text><text x="80" y="145" class="answer">N</text><text x="80" y="177" class="answer">D</text><text x="80" y="209" class="answer">A</text><text x="80" y="241" class="answer">F</text><text x="80" y="273" class="answer">O</text><text x="80" y="305" class="answer">R</text><text x="80" y="337" class="answer">E</text><text x="80" y="369" class="answer">V</text><text x="80" y="401" class="answer">E</text><text x="80" y="433" class="answer">R</text><text x="48" y="145" class="answer">S</text><text x="80" y="145" class="answer">N</text><text x="112" y="145" class="answer">I</text><text x="144" y="145" class="answer">C</text><text x="176" y="145" class="answer">K</text><text x="208" y="145" class="answer">L</text><text x="240" y="145" class="answer">E</text><text x="272" y="145" class="answer">F</text><text x="304" y="145" class="answer">R</text><text x="336" y="145" class="answer">I</text><text x="368" y="145" class="answer">T</text><text x="400" y="145" class="answer">Z</text><text x="368" y="145" class="answer">T</text><text x="368" y="177" class="answer">U</text><text x="368" y="209" class="answer">M</text><text x="368" y="241" class="answer">E</text><text x="368" y="273" class="answer">M</text><text x="368" y="305" class="answer">A</text><text x="368" y="337" class="answer">N</text><text x="368" y="369" class="answer">Q</text><text x="368" y="401" class="answer">U</text><text x="368" y="433" class="answer">E</text><text x="368" y="465" class="answer">S</text><text x="144" y="465" class="answer">M</text><text x="176" y="465" class="answer">O</text><text x="208" y="465" class="answer">N</text><text x="240" y="465" class="answer">S</text><text x="272" y="465" class="answer">T</text><text x="304" y="465" class="answer">E</text><text x="336" y="465" class="answer">R</text><text x="368" y="465" class="answer">S</text><text x="400" y="465" class="answer">I</text><text x="432" y="465" class="answer">N</text><text x="464" y="465" class="answer">C</text><text x="80" y="81" class="answer">K</text><text x="112" y="81" class="answer">E</text><text x="144" y="81" class="answer">R</text><text x="176" y="81" class="answer">N</text><text x="208" y="81" class="answer">C</text><text x="240" y="81" class="answer">L</text><text x="272" y="81" class="answer">I</text><text x="304" y="81" class="answer">F</text><text x="336" y="81" class="answer">F</text><text x="80" y="17" class="answer">W</text><text x="112" y="17" class="answer">I</text><text x="144" y="17" class="answer">N</text><text x="176" y="17" class="answer">D</text><text x="208" y="17" class="answer">Y</text><text x="240" y="17" class="answer">L</text><text x="272" y="17" class="answer">A</text><text x="304" y="17" class="answer">K</text><text x="336" y="17" class="answer">E</text><text x="176" y="401" class="answer">A</text><text x="208" y="401" class="answer">L</text><text x="240" y="401" class="answer">G</text><text x="272" y="401" class="answer">O</text><text x="304" y="401" class="answer">N</text><text x="336" y="401" class="answer">Q</text><text x="368" y="401" class="answer">U</text><text x="400" y="401" class="answer">I</text><text x="432" y="401" class="answer">N</text><text x="16" y="273" class="answer">G</text><text x="48" y="273" class="answer">O</text><text x="80" y="273" class="answer">O</text><text x="112" y="273" class="answer">D</text><text x="144" y="273" class="answer">L</text><text x="176" y="273" class="answer">I</text><text x="208" y="273" class="answer">F</text><text x="240" y="273" class="answer">E</text><text x="240" y="209" class="answer">P</text><text x="272" y="209" class="answer">E</text><text x="304" y="209" class="answer">T</text><text x="336" y="209" class="answer">S</text><text x="368" y="209" class="answer">M</text><text x="400" y="209" class="answer">A</text><text x="432" y="209" class="answer">R</text><text x="464" y="209" class="answer">T</text><text x="16" y="337" class="answer">C</text><text x="48" y="337" class="answer">H</text><text x="80" y="337" class="answer">E</text><text x="112" y="337" class="answer">R</text><text x="144" y="337" class="answer">R</text><text x="176" y="337" class="answer">Y</text><text x="432" y="177" class="answer">O</text><text x="432" y="209" class="answer">R</text><text x="432" y="241" class="answer">C</text><text x="432" y="273" class="answer">H</text><text x="432" y="305" class="answer">I</text><text x="432" y="337" class="answer">D</text><text x="16" y="209" class="answer">P</text><text x="48" y="209" class="answer">I</text><text x="80" y="209" class="answer">A</text><text x="112" y="209" class="answer">N</text><text x="144" y="209" class="answer">O</text></g></svg>
